<svg width="54" height="54" viewBox="0 0 54 54" fill="none" xmlns="http://www.w3.org/2000/svg">
<path fill-rule="evenodd" clip-rule="evenodd" d="M31.5222 5.55768H42.3763C42.948 5.55768 43.4238 6.01105 43.4238 6.58105C43.4238 7.15106 42.948 7.60443 42.3763 7.60443L39.084 7.60428C39.5999 8.22191 39.976 8.94946 40.1735 9.72466L40.227 9.95598L42.3763 9.95666C42.9099 9.95666 43.36 10.3516 43.4176 10.8677L43.4238 10.98C43.4238 11.55 42.948 12.0034 42.3763 12.0034L40.2288 12.0026L40.2051 12.1242C39.6676 14.5464 37.4617 16.354 34.8391 16.4475L34.6256 16.4513L34.2015 16.4513L40.001 21.6787C40.3972 22.0468 40.441 22.6402 40.1124 23.0597L40.0362 23.1468C39.6399 23.5443 38.9923 23.5624 38.5765 23.186L30.8046 16.1815C30.602 15.9885 30.4798 15.723 30.4799 15.4526C30.4691 14.8769 30.9414 14.4144 31.5273 14.4045L34.6294 14.4045C36.2037 14.4008 37.5598 13.4392 38.0456 12.0805L38.0706 12.0026L31.5222 12.0034C30.9886 12.0034 30.5385 11.6085 30.4809 11.0924L30.4746 10.98C30.4746 10.41 30.9504 9.95666 31.5222 9.95666L38.0652 9.95598L38.0463 9.89722C37.5805 8.62077 36.3097 7.68207 34.8182 7.60902L34.6307 7.60443H31.5222C30.9504 7.60443 30.4746 7.15106 30.4746 6.58105C30.4746 6.01105 30.9504 5.55768 31.5222 5.55768ZM3.53477 32.0743L3.01443 32.7801C1.76668 34.5069 2.19545 36.8426 3.96956 38.0119L14.3846 45.5232C14.4309 45.5606 14.5097 45.6178 14.5906 45.6715C16.4249 46.9161 18.8461 46.3929 19.9524 44.4774L20.5493 43.434C21.3134 42.0851 21.2468 40.4311 20.4892 39.1631C21.9125 37.9931 24.2054 37.6653 27.4452 38.2575L27.8931 38.3343C31.9223 38.9809 35.8844 38.4198 39.7576 36.6575L49.6999 32.3L49.8287 32.2319L50.0249 32.1048C51.8805 30.8633 52.5435 29.251 51.7541 27.4974C50.9299 25.6699 49.1496 25.1531 46.8032 25.8654L46.6857 25.9093L35.3471 30.9915C35.0465 29.4649 34.2397 28.3309 32.9359 27.6736C31.6455 27.0232 29.1738 26.5226 25.4411 26.1289L24.6219 26.0462C21.5322 25.6038 19.0046 25.7591 17.0723 26.5505C15.3218 27.2674 13.0299 28.9376 10.1463 31.5726L9.97292 31.733L8.77717 30.942C7.04824 29.9023 4.7463 30.4157 3.53477 32.0743ZM33.3857 31.2765C33.19 30.3834 32.7451 29.7948 32.0446 29.4417C30.9549 28.8924 28.3816 28.3992 24.3865 28.0116C21.5714 27.6095 19.3825 27.744 17.8227 28.3828C16.3701 28.9777 14.3063 30.4729 11.6748 32.8589L19.0819 37.7589C20.9485 36.1151 23.7595 35.6352 27.4358 36.246L27.8009 36.3097C31.4422 36.9741 35.0104 36.5514 38.5428 35.0301L38.9502 34.8497L48.8323 30.5177L48.9397 30.4493C49.9894 29.751 50.2681 29.1385 49.9941 28.4195L49.9489 28.3108C49.6076 27.554 48.9278 27.3281 47.5679 27.7049L47.4364 27.7421L35.3289 33.1702C35.2334 33.213 35.1319 33.2403 35.0282 33.2513L34.9239 33.2568H28.9503C28.4035 33.2568 27.9603 32.8136 27.9603 32.2668C27.9603 31.7565 28.3464 31.3364 28.8424 31.2826L28.9503 31.2768L33.3857 31.2765ZM7.62921 32.5693L7.74541 32.632L18.2707 39.5953C19.1049 40.1986 19.3747 41.4907 18.8287 42.4545L18.2359 43.4908C17.7126 44.3969 16.5945 44.6385 15.694 44.0275C15.6498 43.9981 15.6133 43.9716 15.575 43.9415L5.09355 36.3824C4.26922 35.8381 4.05296 34.8574 4.53508 34.0664L4.64117 33.91L5.13101 33.2461C5.71971 32.4402 6.80587 32.1642 7.62921 32.5693Z" fill="#4197D3"/>
<path d="M29.8378 19.9673L32.3455 22.2275" stroke="#EB9AA7" stroke-width="2" stroke-linecap="round" stroke-linejoin="round"/>
<path d="M9.22856 36.4788L14.6514 40.3301" stroke="#EB9AA7" stroke-width="2" stroke-linecap="round" stroke-linejoin="round"/>
</svg>
