<svg width="54" height="54" viewBox="0 0 54 54" fill="none" xmlns="http://www.w3.org/2000/svg">
<path fill-rule="evenodd" clip-rule="evenodd" d="M48.5711 21.5369V21.5369C48.5711 21.545 48.5729 21.5531 48.5749 21.562C48.5774 21.5729 48.5801 21.5851 48.5801 21.5999V46.7999C48.5801 47.2949 48.1751 47.6999 47.6801 47.6999H6.28013C5.78513 47.6999 5.38013 47.2949 5.38013 46.7999V21.5999C5.38013 21.5729 5.38913 21.5549 5.39813 21.5459C5.39813 21.5099 5.39813 21.4739 5.40713 21.4379C5.41163 21.4199 5.41838 21.4019 5.42513 21.3839C5.43188 21.3659 5.43863 21.3479 5.44313 21.3299C5.45213 21.2849 5.47013 21.2399 5.48813 21.2039C5.49713 21.1904 5.50613 21.1747 5.51513 21.1589C5.52413 21.1432 5.53313 21.1274 5.54213 21.1139C5.54607 21.106 5.54829 21.0981 5.55029 21.091C5.55286 21.0819 5.55507 21.074 5.56013 21.0689C5.56594 21.0573 5.5755 21.0494 5.58639 21.0405L5.58639 21.0405L5.5864 21.0405L5.5864 21.0405C5.59238 21.0355 5.59875 21.0303 5.60513 21.0239C5.61747 21.0116 5.62876 20.9992 5.63972 20.9872L5.63974 20.9872L5.63974 20.9872C5.66072 20.9643 5.68048 20.9427 5.70413 20.9249C5.71313 20.9204 5.71988 20.9114 5.72663 20.9024C5.73338 20.8934 5.74013 20.8844 5.74913 20.8799L15.2801 13.8329V10.7999C15.2801 10.3049 15.6851 9.89992 16.1801 9.89992H20.6531L26.5211 6.42592C26.8091 6.25492 27.1601 6.25492 27.4391 6.42592L33.3071 9.89992H37.7801C38.2751 9.89992 38.6801 10.3049 38.6801 10.7999V13.8329L48.2201 20.8709C48.2318 20.8767 48.2396 20.8863 48.2486 20.8972C48.2535 20.9032 48.2588 20.9095 48.2651 20.9159C48.2774 20.9282 48.2897 20.9394 48.3016 20.9503L48.3017 20.9504L48.3018 20.9505L48.3018 20.9505C48.3248 20.9715 48.3464 20.9913 48.3641 21.0149C48.3699 21.0265 48.3795 21.0344 48.3904 21.0434L48.3904 21.0434L48.3905 21.0435C48.3964 21.0484 48.4028 21.0536 48.4091 21.0599C48.4136 21.0689 48.4159 21.0757 48.4181 21.0824C48.4204 21.0892 48.4226 21.0959 48.4271 21.1049C48.444 21.1218 48.4539 21.1423 48.4633 21.1618C48.4689 21.1735 48.4744 21.1848 48.4811 21.1949C48.4901 21.2174 48.4969 21.2377 48.5036 21.2579C48.5104 21.2782 48.5171 21.2984 48.5261 21.3209C48.5441 21.3569 48.5531 21.3929 48.5621 21.4289L48.5621 21.4289C48.5711 21.4649 48.5711 21.5009 48.5711 21.5369ZM38.6801 27.1347L46.1681 21.5997L38.6801 16.0647V27.1347ZM26.9801 8.24369L29.7791 9.89969H24.1901L26.9801 8.24369ZM36.8802 28.4668V11.6998H17.0802V28.4578L18.8802 29.7898L26.5402 35.7398L35.0802 29.7988L36.8802 28.4668ZM15.2802 27.1347L7.79216 21.5997L15.2802 16.0647V27.1347ZM7.18009 23.3817V45.8997H46.7801V23.3817L27.5111 37.6197C27.3581 37.7367 27.1691 37.7997 26.9801 37.7997C26.7911 37.7997 26.6021 37.7367 26.4491 37.6197L7.18009 23.3817Z" fill="#4197D3"/>
<path d="M41.3303 12.6019L48.1451 17.713" stroke="#EB9AA7" stroke-width="2" stroke-linecap="round" stroke-linejoin="round"/>
<path d="M44.7378 11.1891L48.9059 14.3865" stroke="#EB9AA7" stroke-width="2" stroke-linecap="round" stroke-linejoin="round"/>
<path fill-rule="evenodd" clip-rule="evenodd" d="M27.8378 23.4669V23.9976H26.1621V23.2295C26.1621 23.0247 26.1737 22.8501 26.197 22.7058C26.2203 22.5615 26.2622 22.4312 26.3227 22.3148C26.3832 22.1984 26.4623 22.0867 26.5601 21.9797C26.6578 21.8726 26.7765 21.7446 26.9162 21.5956L27.9915 20.5064C28.2242 20.2736 28.3406 19.9711 28.3406 19.5987C28.3406 19.2356 28.2219 18.94 27.9845 18.7119C27.7471 18.4838 27.4468 18.3698 27.0838 18.3698C26.6927 18.3698 26.3715 18.5024 26.1202 18.7678C25.8688 19.0331 25.7245 19.3566 25.6873 19.7383L23.8998 19.5987C23.9556 19.1518 24.072 18.7538 24.2489 18.4047C24.4258 18.0555 24.6562 17.76 24.9402 17.5179C25.2241 17.2758 25.5523 17.092 25.9247 16.9663C26.2971 16.8406 26.7067 16.7778 27.1536 16.7778C27.5725 16.7778 27.9612 16.8383 28.3196 16.9593C28.6781 17.0803 28.9899 17.2549 29.2553 17.483C29.5206 17.7111 29.7278 17.995 29.8767 18.3348C30.0257 18.6747 30.1001 19.0633 30.1001 19.5009C30.1001 19.8081 30.0582 20.0781 29.9745 20.3109C29.8907 20.5436 29.779 20.7577 29.6393 20.9532C29.4997 21.1487 29.3391 21.3349 29.1575 21.5118C28.976 21.6887 28.7828 21.8749 28.578 22.0704C28.4476 22.1915 28.3359 22.2985 28.2428 22.3916C28.1497 22.4847 28.0729 22.5801 28.0124 22.6779C27.9519 22.7756 27.9077 22.8874 27.8797 23.013C27.8518 23.1387 27.8378 23.29 27.8378 23.4669ZM27.7891 26.6787C27.5703 26.8928 27.3073 26.9999 27.0001 26.9999C26.8511 26.9999 26.7091 26.972 26.5742 26.9161C26.4392 26.8602 26.3205 26.7858 26.2181 26.6927C26.1156 26.5996 26.0342 26.4878 25.9737 26.3575C25.9132 26.2272 25.8829 26.0875 25.8829 25.9386C25.8829 25.6406 25.9923 25.3846 26.2111 25.1705C26.4299 24.9564 26.6929 24.8493 27.0001 24.8493C27.298 24.8493 27.5587 24.9517 27.7821 25.1565C28.0055 25.3613 28.1173 25.6127 28.1173 25.9106C28.1173 26.2085 28.0079 26.4646 27.7891 26.6787Z" fill="#4197D3"/>
</svg>
