<svg width="54" height="54" viewBox="0 0 54 54" fill="none" xmlns="http://www.w3.org/2000/svg">
<path fill-rule="evenodd" clip-rule="evenodd" d="M28.6724 4.30473C26.2428 4.30473 24.2732 6.27434 24.2732 8.70398H22.0737C20.6158 8.70398 19.434 9.88574 19.434 11.3435V11.7837H17.6744C14.7588 11.7837 12.3953 14.1472 12.3953 17.0628V41.6986C12.3953 44.6141 14.7588 46.9777 17.6744 46.9777H38.7908C41.7064 46.9777 44.0699 44.6141 44.0699 41.6986V17.0628C44.0699 14.1472 41.7064 11.7837 38.7908 11.7837H37.9109V11.3435L37.9064 11.1884C37.8261 9.80284 36.677 8.70398 35.2713 8.70398H33.0717C33.0717 6.27434 31.1021 4.30473 28.6724 4.30473ZM37.9039 14.1763C37.9085 14.1125 37.9109 14.0481 37.9109 13.9831V13.5429H38.7908C40.7346 13.5429 42.3102 15.1186 42.3102 17.0623V41.6982C42.3102 43.6419 40.7346 45.2176 38.7908 45.2176H17.6744C15.7307 45.2176 14.155 43.6419 14.155 41.6982V17.0623L14.1594 16.8867C14.2509 15.0246 15.7896 13.5429 17.6744 13.5429H19.434V13.9831C19.434 15.4409 20.6158 16.6226 22.0736 16.6226H35.2713C36.0188 16.6226 36.6937 16.3119 37.1739 15.8126C37.5872 15.3833 37.857 14.8136 37.9038 14.1789L37.9039 14.1763ZM36.1511 13.987L36.1511 13.9827V11.3432C36.1511 10.8573 35.7572 10.4633 35.2714 10.4633L32.0809 10.464C31.5058 10.4641 31.0852 9.92157 31.2287 9.36468C31.2837 9.15094 31.3119 8.92953 31.3119 8.70364C31.3119 7.24585 30.1302 6.06408 28.6724 6.06408C27.2146 6.06408 26.0328 7.24585 26.0328 8.70364C26.0328 8.92953 26.061 9.15094 26.1161 9.36468C26.2595 9.92157 25.8389 10.4641 25.2638 10.464L22.0735 10.4633C21.5876 10.4633 21.1936 10.8573 21.1936 11.3432V12.6472L21.1938 12.6635V13.9833C21.1938 14.0481 21.2008 14.1114 21.2141 14.1724C21.2967 14.5481 21.6193 14.8338 22.0131 14.8605L22.0575 14.8624L22.0735 14.8626H35.2712C35.7329 14.8626 36.1115 14.507 36.1482 14.0548L36.1511 13.987ZM37.471 21.0221C37.9569 21.0221 38.3508 21.416 38.3508 21.9019C38.3508 22.3532 38.0112 22.7251 37.5736 22.7759L37.471 22.7818H18.9941C18.5082 22.7818 18.1143 22.3879 18.1143 21.9019C18.1143 21.4507 18.4539 21.0788 18.8915 21.028L18.9941 21.0221H37.471ZM38.3508 27.6209C38.3508 27.135 37.9569 26.7411 37.471 26.7411H18.9941L18.8915 26.747C18.4539 26.7978 18.1143 27.1697 18.1143 27.6209C18.1143 28.1068 18.5082 28.5008 18.9941 28.5008H37.471L37.5736 28.4948C38.0112 28.444 38.3508 28.0721 38.3508 27.6209ZM37.471 32.9C37.9569 32.9 38.3508 33.2939 38.3508 33.7799C38.3508 34.2311 38.0112 34.603 37.5736 34.6538L37.471 34.6597H18.9941C18.5082 34.6597 18.1143 34.2658 18.1143 33.7799C18.1143 33.3287 18.4539 32.9568 18.8915 32.9059L18.9941 32.9H37.471ZM32.6318 39.9388C32.6318 39.4529 32.2379 39.059 31.7519 39.059H18.9941L18.8915 39.0649C18.4539 39.1157 18.1143 39.4876 18.1143 39.9388C18.1143 40.4248 18.5082 40.8187 18.9941 40.8187H31.7519L31.8545 40.8128C32.2921 40.7619 32.6318 40.39 32.6318 39.9388Z" fill="#4197D3"/>
<path d="M15.0029 48.7671C15.0029 48.7671 10 47.7409 10 41.1291" stroke="#EB9AA7" stroke-width="2" stroke-linecap="round" stroke-linejoin="round"/>
<path d="M25.5152 12.6095H31.5051" stroke="#EB9AA7" stroke-width="2" stroke-linecap="round" stroke-linejoin="round"/>
</svg>
