<svg width="54" height="54" viewBox="0 0 54 54" fill="none" xmlns="http://www.w3.org/2000/svg">
<path fill-rule="evenodd" clip-rule="evenodd" d="M27 48C25.4806 48 24.0526 47.8467 22.6351 47.5317C22.349 47.4682 22.0998 47.2936 21.9424 47.0464C21.785 46.7992 21.7322 46.4996 21.7957 46.2134C21.8592 45.9273 22.0337 45.6781 22.281 45.5207C22.5282 45.3632 22.8278 45.3105 23.1139 45.3739C24.3897 45.6574 25.6234 45.7897 27 45.7897C31.9812 45.7828 36.7564 43.8009 40.2787 40.2787C43.8009 36.7564 45.7828 31.9812 45.7897 27C45.7828 22.0188 43.8009 17.2436 40.2787 13.7213C36.7564 10.1991 31.9812 8.21719 27 8.21025C22.0188 8.21719 17.2436 10.1991 13.7213 13.7213C10.1991 17.2436 8.21719 22.0188 8.21025 27C8.21025 30.97 9.41145 34.7206 11.6826 37.8444C12.3809 38.8209 11.8201 40.2415 10.6819 42.877C10.3795 43.5795 9.9333 44.6127 9.7023 45.3288C10.3848 45.0695 11.3529 44.5843 12.0133 44.2546C14.4787 43.0209 15.9277 42.3531 16.9767 43.0093C17.4943 43.3317 17.6519 44.0142 17.3295 44.5318C17.0376 44.998 16.4559 45.1713 15.9676 44.9686C15.4405 45.0127 13.9233 45.7719 13.0025 46.2328C10.5371 47.4645 8.75415 48.3559 7.7409 47.1715C6.81795 46.2538 7.5477 44.5612 8.65335 42.0024C9.0576 41.0679 9.7149 39.5454 9.77685 38.9773C7.3062 35.5124 6 31.3722 6 27C6 15.4216 15.4216 6 27 6C38.5784 6 48 15.4216 48 27C48 38.5784 38.5784 48 27 48Z" fill="#4197D3"/>
<path fill-rule="evenodd" clip-rule="evenodd" d="M22.7452 17.9891C21.817 18.4941 20.0194 19.7174 19.7443 21.7124C19.4345 23.9646 21.1282 26.7965 24.6415 29.8992C28.3648 33.1794 31.6187 34.6504 34.0432 34.158C35.7389 33.8136 36.748 32.5883 37.2803 31.6727L33.4142 29.9517C32.4965 30.8337 31.4024 31.2621 30.239 31.176C28.1254 31.0227 25.9172 29.2629 23.4875 25.8011C22.8764 24.9443 22.6486 24.077 22.8166 23.2317C22.9615 22.5093 23.4025 21.8552 24.0713 21.3575L22.7452 17.9891ZM33.0751 36.4501C30.2222 36.4501 26.9179 34.81 23.2292 31.5582C19.0775 27.8905 17.1865 24.477 17.6086 21.4079C18.0433 18.2453 20.8163 16.5148 21.9629 15.9268C22.3084 15.5698 22.763 15.3977 23.2376 15.4628C23.8162 15.5415 24.3013 15.9667 24.5134 16.5757L26.2312 20.9459C26.6008 21.6914 26.269 22.6385 25.4237 23.0679C25.1854 23.217 24.9743 23.4574 24.9313 23.6695C24.8777 23.9373 25.0688 24.2775 25.2379 24.5148C27.7411 28.0806 29.4221 28.9132 30.3944 28.9836C31.0045 29.0235 31.5368 28.7831 32.0744 28.2098C32.5322 27.7436 33.3113 27.4611 34.0558 27.8391L38.6107 29.8666C38.8222 29.9723 39.0105 30.1191 39.1645 30.2985C39.3185 30.4779 39.4351 30.6863 39.5074 30.9114C39.654 31.3489 39.6266 31.826 39.4307 32.2438C38.9288 33.2645 37.441 35.7078 34.4663 36.3115C34.0084 36.4042 33.5423 36.4513 33.0751 36.4501Z" fill="#EB9AA7"/>
</svg>
